<?xml version="1.0" encoding="iso-8859-1"?>
<!-- Generator: Adobe Illustrator 16.0.0, SVG Export Plug-In . SVG Version: 6.00 Build 0)  -->
<!DOCTYPE svg PUBLIC "-//W3C//DTD SVG 1.1//EN" "http://www.w3.org/Graphics/SVG/1.1/DTD/svg11.dtd">
<svg version="1.1" id="Layer_1" xmlns="http://www.w3.org/2000/svg" xmlns:xlink="http://www.w3.org/1999/xlink" x="0px" y="0px"
	 width="1000px" height="400px" viewBox="0 0 1000 400" style="enable-background:new 0 0 1000 400;" xml:space="preserve">
<path style="fill:#1F70C1;" d="M0,0v27.367h194.648V0H0z M222.226,0v27.367h277.383c0,0-28.333-27.367-65.859-27.367H222.226z
	 M554.023,0v27.367h167.812L711.875,0H554.023z M842.148,0l-9.961,27.367h166.289V0H842.148z M0,53.222v27.367h194.648V53.222H0z
	 M222.226,53.261v27.329h309.57c0,0-3.615-21.063-9.922-27.329H222.226z M554.023,53.261v27.329h186.211l-9.219-27.329H554.023z
	 M822.226,53.261l-9.219,27.329h185.469V53.261H822.226z M55.937,106.444v27.406h84.297v-27.406H55.937z M278.164,106.444v27.406
	h84.297v-27.406H278.164z M444.453,106.444v27.406h84.297c0,0,5.352-14.473,5.352-27.406H444.453z M609.961,106.444v27.406h149.453
	l-9.961-27.406H609.961z M803.867,106.444l-10,27.406h150.195v-27.406H803.867z M55.937,159.706v27.367h84.297v-27.367H55.937z
	 M278.164,159.706v27.367h215.312c0,0,18.012-14.042,23.75-27.367H278.164z M609.961,159.706v27.367h84.297v-15.234l5.352,15.234
	h154.414l5.742-15.234v15.234h84.297v-27.367H785.82l-8.398,23.18l-8.438-23.18H609.961z M55.937,212.928v27.367h84.297v-27.367
	H55.937z M278.164,212.928v27.367h239.062c-5.739-13.281-23.75-27.367-23.75-27.367H278.164z M609.961,212.928v27.367h84.297
	v-27.367H609.961z M709.57,212.928l10.195,27.367h115.781l9.688-27.367H709.57z M859.765,212.928v27.367h84.297v-27.367H859.765z
	 M55.937,266.15v27.366h84.297V266.15H55.937z M278.164,266.15v27.366h84.297V266.15H278.164z M444.453,266.15v27.366h89.648
	c0-12.915-5.352-27.366-5.352-27.366H444.453z M609.961,266.15v27.366h84.297V266.15H609.961z M728.711,266.15l9.883,27.366h77.617
	l9.961-27.366H728.711z M859.765,266.15v27.366h84.297V266.15H859.765z M1.523,319.372v27.406h194.648v-27.406H1.523z
	 M222.226,319.372v27.406h299.648c6.307-6.275,9.922-27.406,9.922-27.406H222.226z M555.547,319.372v27.406h138.711v-27.406H555.547
	z M747.89,319.372l10.156,27.406h39.492l9.531-27.406H747.89z M859.765,319.372v27.406H1000v-27.406H859.765z M1.523,372.633V400
	h194.648v-27.367H1.523z M222.226,372.633v27.328H433.75c37.526,0,65.859-27.328,65.859-27.328H222.226z M555.547,372.633V400
	h138.711v-27.367H555.547z M767.148,372.633l9.766,27.29l1.68,0.038l9.922-27.328H767.148z M859.765,372.633V400H1000v-27.367
	H859.765z"/>
</svg>
