<?xml version="1.0" encoding="iso-8859-1"?>
<!-- Generator: Adobe Illustrator 16.0.0, SVG Export Plug-In . SVG Version: 6.00 Build 0)  -->
<!DOCTYPE svg PUBLIC "-//W3C//DTD SVG 1.1//EN" "http://www.w3.org/Graphics/SVG/1.1/DTD/svg11.dtd">
<svg version="1.1" id="Layer_1" xmlns="http://www.w3.org/2000/svg" xmlns:xlink="http://www.w3.org/1999/xlink" x="0px" y="0px"
	 width="192.756px" height="192.756px" viewBox="0 0 192.756 192.756" style="enable-background:new 0 0 192.756 192.756;"
	 xml:space="preserve">
<g>
	<polygon style="fill-rule:evenodd;clip-rule:evenodd;fill:#FFFFFF;" points="0,0 192.756,0 192.756,192.756 0,192.756 0,0 	"/>
	<path style="fill-rule:evenodd;clip-rule:evenodd;fill:#CC2229;" d="M106.426,38.458c-0.135-0.067-0.27-0.134-0.404-0.202
		c0-0.101,0-0.235,0-0.337c2.627-2.458,5.354-4.949,8.014-7.474c1.01-1.38,2.053-2.794,3.098-4.175
		c2.592-3.03,3.533-9.258,1.75-12.792c-2.828-5.724-5.959-7.643-11.953-9.36c-1.986-0.236-1.986-0.236-2.254-0.371
		c-7.139,0-12.356,2.02-17.844,6.666c-0.909,1.146-2.087,2.29-3.03,3.401c-3.938,6.464-5.722,13.298-6.228,20.906
		c-0.504,7.71-0.471,10.37-0.471,11.076c0.067-0.033,0.134-0.067,0.202-0.067c0.067-0.034,0.102-0.034,0.135-0.067
		c1.717-1.179,3.872-4.916,4.781-6.768c1.649-6.026,4.478-11.648,6.093-17.675c0.371-2.391,0.573-4.68,0.707-7.002
		c0.102,0,0.236,0,0.371,0c0.438,1.043,0.438,1.043,0.505,1.616c0,0.033,0.034,0.067,0.034,0.101c0,1.077-0.034,2.121-0.034,3.164
		c-0.741,6.262-3.637,12.794-5.791,18.685c-0.067,0.337-0.101,0.674-0.134,1.044c0.909-0.336,1.817-1.28,2.625-1.919
		c1.919-1.312,3.872-2.592,5.825-3.872c1.851-1.885,1.515-4.949,1.683-7.407c0.203,0,0.405,0,0.64,0
		c0.539,1.785-0.068,3.67,0.741,5.353c0.437,0.169,0.909,0.371,1.38,0.539c0.168,0.404,0.168,0.404,0.135,1.178
		c-2.593,1.38-2.357,1.415-2.324,4.478c1.954,0.101,6.768-6.161,8.317-1.515c-0.102,2.323-0.943,0.741-1.785,0.336
		c-1.75,0.168-4.612,2.525-6.161,3.501c-0.337,0.27-0.64,0.573-0.977,0.842c-0.606,1.313-1.246,1.246-2.559,1.649
		c0,0.067,0,0.168,0,0.27c-1.717,0.909-3.468,2.929-3.771,4.915c0.203,0.539,0.203,0.539,0.74,1.179c0.135,0,0.304,0,0.472,0
		c3.973-3.467,9.797-7.912,15.352-7.912c0.168,0.135,0.336,0.269,0.539,0.404c0,0.134,0,0.269,0,0.438
		c-1.617,0.572-3.299,0.674-4.881,1.145c-2.492,1.111-2.492,1.111-4.748,2.357c-1.312,0.841-4.916,3.434-5.319,4.544
		c-0.809,0.236-4.579,6.834-5.185,8.081c-0.269,1.178-1.01,2.592,0.034,3.635c1.178,0.572,2.996,1.65,4.511,1.481
		c0.202-0.875,0.303-2.356,0.573-3.232c0-2.828-2.828-1.784-3.198-3.501c1.683-0.033,2.188,0.707,3.771,1.044
		c0.168-0.135,0.336-0.27,0.505-0.404c0.605-0.875,8.686-12.558,10.469-9.695c-0.066,1.413-2.625,2.154-3.164,3.602
		c-0.572,0.202-1.145,0.774-1.379,1.347c-0.102,0.034-0.203,0.067-0.27,0.101c-1.448,1.952-4.68,5.05-4.309,7.844
		c-0.741,1.414-1.011,1.616-1.011,3.333c0.169,0.134,0.304,0.302,0.472,0.437c5.554,2.56,9.796,3.536,8.181,10.437
		c-0.303,0.943-0.943,2.255-0.943,3.299l-5.386,8.417c-0.067,0.067-0.168,0.134-0.236,0.168c-0.707,1.212-0.774,1.279-0.842,1.548
		l-0.841,1.313c-1.583,0.808-1.683,3.905-3.434,3.434c0-1.415,0.336-1.785,1.043-2.962c0-0.034,0-0.067,0-0.102
		c0.504-0.639,0.976-1.279,1.448-1.919c0.808-0.875,2.02-2.322,2.491-3.4c0.54-0.774,1.044-1.515,1.515-2.29
		c0.034,0,0.034-0.033,0.034-0.033s0.034-0.034,0.034-0.067c0.471-0.774,0.942-1.549,1.346-2.323
		c0.102-0.101,0.135-0.203,0.135-0.303c0.202-0.37,0.403-0.741,0.573-1.111c0,0,0.033,0,0.066,0
		c2.526-3.064,3.401-7.542,0.303-10.403c-1.717-0.841-3.838-2.087-5.69-2.019c-0.538,3.669,4.41,6.699,4.579,10.133
		c-0.168-0.135-0.37-0.236-0.539-0.336c-2.524-3.333-4.916-6.026-5.959-10.033c-1.414-1.515-2.693-1.583-4.578-2.088
		c-0.168-0.033-0.371-0.033-0.539-0.067c0,0.101,0,0.202,0,0.336c0.37,0.371,0.74,0.775,1.111,1.179
		c0.707,1.144,1.852,3.097,1.852,4.579c-0.471,1.178-0.741,2.458-0.741,3.804c0.606,0.774,1.784,2.154,4.478,4.781
		c-3.198-1.481-4.478-3.569-5.185-3.535c-0.909,1.683-1.953,3.333-3.03,4.983c0.034,0.033,0.034,0.067,0.034,0.101l-1.582,2.154
		c-0.135,0-0.236,0.067-0.371,0.101c0,0.067,0,0.168,0,0.236c0,0.067,0,0.101,0,0.134L79.829,83.2
		c-0.067,0.034-0.167,0.067-0.269,0.102c-0.74,1.245-1.583,2.188-3.063,2.356c-0.303-1.313,1.111-1.548,1.346-2.423
		c-0.033,0-0.033,0-0.033,0c1.885-1.583,2.794-3.333,3.669-5.084c0.472-0.572,1.01-1.246,1.01-1.886h-0.033
		c0.134-0.302,0.336-0.605,0.539-0.908c0.202-0.135,0.236-0.168,0.673-0.708c0.101-0.269,0.202-0.538,0.303-0.774
		c0.168-0.337,0.302-0.707,0.336-1.078c0.033-0.201,0.033-0.369,0-0.471c-0.068-0.37-0.236-0.774-0.573-1.212
		c0.034,0,0.067,0,0.101,0c-1.077-1.044-1.279-3.905-1.582-8.417c-0.91-0.741-2.189-2.155-3.233-2.323
		c-1.414,0.438-2.794,0.875-4.174,1.347c-3.266,0.235-3.266,0.235-5.858,0.235c-5.488-0.606-10.74-3.131-13.837-7.877
		c-1.852-3.199-3.097-5.892-3.905-9.326c-0.135-1.212-0.27-2.424-0.404-3.636c0-1.144,0-2.289,0-3.4c0-0.067,0-0.101,0-0.134
		c0.909-13.096,8.35-21.984,19.762-27.101c3.03-0.64,5.892-1.987,9.09-1.987c0,0.101,0,0.236,0,0.37
		c-4.074,0.775-8.821,3.771-11.985,6.363c-2.525,2.963-6.733,8.013-7.541,16.631c-0.438,8.989,2.794,12.221,5.588,13.938
		c0.942,0.674,8.619,3.905,9.628,2.188c0.809-9.157,1.178-18.146,3.603-26.865c2.828-7.777,6.228-12.424,13.635-16.126
		c1.313-0.505,2.626-0.977,3.973-1.482c3.67-0.808,6.834-0.841,10.706-0.37c4.781,1.28,9.527,3.636,11.75,8.518
		c1.615,3.333,0.674,8.384,0.404,10.032c0-0.033-1.078,5.926-4.578,10.168c0,0.336,0,0.673,0,1.01
		C113.631,34.754,108.984,38.155,106.426,38.458L106.426,38.458z M107.873,78.251c0.236-0.135,0.438-0.337,0.674-0.741
		c1.48-4.141-0.471-5.588-3.502-7.709c-3.197-1.616-4.914-2.929-6.969-5.858c-0.773-1.684-1.077-1.986-1.178-4.545
		c2.256-8.382,9.057-14.341,15.991-19.088c5.051-3.165,5.455-3.535,6.027-3.535c1.65-2.424,3.299-5.185,5.387-7.238
		c0.875,0,1.482,0.102,2.424,0.472c-0.033,0.033-0.369,0.033-0.438,0.067c-1.145,1.279-2.693,3.299-3.67,4.78
		c0.303,0.438,0.539,0.067,0.707,1.28c-0.641,0.269-1.312,0.505-2.053,0.774c-3.064,3.939-5.117,8.888-3.838,13.803
		c1.717,3.872,5.049,7.609,7.641,11.11c0.674,1.246,0.674,1.246,1.045,2.255c-0.27-0.101-0.539-0.202-0.809-0.303
		c-3.805-5.151-9.426-10.908-9.695-15.419c0.066-5.286,0.773-5.791,1.885-9.292c-0.236,0-0.674,0.336-0.875,0.371
		c-7.541,4.813-13.871,9.393-17.607,17.742c-0.74,2.625-0.773,3.266-0.236,6.026c1.246,2.828,3.467,4.174,5.994,5.656
		c0.471,0.336,2.49,1.683,2.592,1.75c2.053,1.683,3.602,2.996,3.332,5.959c-0.201,0.707-0.234,0.74-0.27,1.279l-2.256,3.804
		c-0.336,0.202-0.605,0.505-0.875,0.909c-0.303,0.202-0.303,0.202-1.75,1.919c-0.473,0.336-0.91,0.505-1.111,1.044
		c-1.885,0.74-4.545,5.184-6.396,4.005c0.068-1.211,1.818-2.356,2.795-3.097c0.336-1.212,3.871-2.761,4.275-4.209
		C106.527,80.945,107.301,79.631,107.873,78.251L107.873,78.251z M71.783,60.644c-6.632-0.101-10.269-1.313-14.981-6.632
		c-4.982-7.406-5.656-13.871-3.939-22.187c1.448-5.083,3.098-7.709,5.893-11.244c1.784-2.087,4.511-4.848,7.743-6.396
		c-1.144,1.447-2.02,2.728-2.861,3.737c-3.973,6.598-5.622,13.029-4.41,20.839c2.727,8.922,8.012,9.09,15.554,11.244
		c0,1.482-0.673,2.728-0.606,4.208c1.414,0.337,1.582,1.279,2.323,2.727c0.438,0.573,1.279,1.381,1.212,2.256
		C76.126,60.206,73.602,60.542,71.783,60.644L71.783,60.644z M78.55,57.849c-1.246-2.154-2.896-5.555-1.65-7.911
		c1.549-0.337,3.603-0.977,5.286-0.876c0,0.202-0.034,0.404-0.034,0.573c-1.953,2.962-3.165,4.646-3.165,8.214
		C78.853,57.849,78.685,57.849,78.55,57.849L78.55,57.849z M78.449,47.648c-0.102-0.639,1.38-2.861,2.02-3.03
		c0,0.809-0.371,2.391-0.977,2.997C79.123,47.615,78.786,47.648,78.449,47.648L78.449,47.648z M81.681,47.715
		c-0.168-0.067-0.337-0.135-0.472-0.202c0-0.203,0-0.404,0.034-0.606c1.346-3.872,2.29-6.397,6.026-8.282
		c0.809-0.539,4.613-3.771,5.387-3.097c0.067,1.279-0.471,3.535-1.346,4.545C87.977,42.262,86.057,47.311,81.681,47.715
		L81.681,47.715z M81.243,57.176c0-4.007,2.458-6.733,5.016-9.596c0.203,0,0.404,0,0.606,0c0.371,1.617,0.303,3.064-0.539,4.68
		C85.014,53.944,83.6,56.839,81.243,57.176L81.243,57.176z M82.152,59.465c-0.034-0.236-0.067-0.438-0.101-0.673
		c0.438-0.337,0.37-0.371,0.943-0.438c-0.034,0.438-0.034,0.438-0.27,1.077C82.522,59.431,82.354,59.465,82.152,59.465
		L82.152,59.465z M84.711,69.599c-0.472-0.336-0.875-3.972-0.572-4.613c1.111,0.371,1.312,3.569,0.841,4.546
		C84.879,69.565,84.778,69.599,84.711,69.599L84.711,69.599z"/>
	<path style="fill-rule:evenodd;clip-rule:evenodd;fill:#5257A2;" d="M117.906,84.715c1.246-0.034,2.492-0.034,3.736-0.067
		c0-0.068,0.033-0.135,0.068-0.203c0.875-0.202,1.816-0.606,2.828-0.639v0.673c-1.584,0.909-2.627,1.077-4.377,1.28
		c-0.875,0.403-1.684,0.875-2.559,1.178c-0.438-0.067-0.438-0.067-4.041,0.438c-1.379,0.067-3.23,0.404-4.543,0.067
		c-0.035-0.067-0.035-0.168-0.068-0.235l0.201-0.202l-0.066-0.774c0.27-0.067,0.537-0.101,0.807-0.168
		c0-0.033,0.035-0.101,0.068-0.168C112.486,85.321,115.246,85.22,117.906,84.715L117.906,84.715z M99.02,77.376
		c0.875,0,1.717,0.034,2.592,0.067v0.539c-1.818,0.235-3.434,0.37-5.251,0.438v-0.135c-0.809-0.168-1.919,0.201-2.525-0.067v-0.37
		c0.37-0.034,2.929-0.067,3.165-0.337L99.02,77.376L99.02,77.376z M103.598,78.722c0.943,0,1.92-0.034,2.861-0.034l0.035-0.1
		l5.15-0.606c3.197-0.236,6.43-0.875,9.629-1.718c0.672-0.168,1.145-0.37,1.818-0.773c3.062-1.246,6.361-2.054,9.627-2.962
		c-0.438-1.818-8.281,1.111-9.258,1.716c-0.605,0.808-0.977,1.313-2.055,1.515c-0.57-0.034-1.109-0.034-1.379-0.37
		c0.605-0.64,1.75-0.673,2.223-1.617c0.672-0.269,1.178-0.773,1.682-1.245c2.762-0.977,5.287-1.751,8.148-2.324
		c6.16,0,11.816,1.886,15.891,6.834c1.043,0.27,2.256,3.569,2.592,4.814c-0.539,7.608-8.113,13.938-13.803,18.147
		c-3.906,2.188-7.576,4.24-11.818,5.354c-1.816,0.168-3.668,0.336-5.486,0.504c-0.539-0.27-0.539-0.336-0.674-0.74
		c10.471-0.809,18.449-7.307,25.889-14.174c0.035-0.101,0.068-0.168,0.102-0.27c1.818-0.673,3.098-4.881,3.67-6.463
		c0.033-0.034,0.102-0.034,0.135-0.067c-0.033-0.606-0.068-1.178-0.102-1.75c-0.369,0-0.201,0.707-0.168,1.01h-0.168
		c-0.203,0.27-0.404,0.538-0.572,0.808c-0.404-0.034-0.404-0.034-0.572-0.236c-0.203-2.021-0.102-4.949-1.852-6.161l-1.717,0.034
		c-0.203,0.404-0.203,0.404-0.707,3.265c-1.111,3.536-2.559,6.565-4.545,9.763c-2.357,2.962-4.982,6.162-8.451,7.878v0.27
		c-0.539,0.168-1.414,0.572-1.852,0.438c0-0.135,0.033-0.236,0.068-0.336c4.578-3.805,10.975-9.865,12.051-16.026
		c0.035-0.034,0.102-0.067,0.135-0.067c0-0.909,0.035-1.818,0.035-2.727h-0.236c-0.033-0.64-0.102-1.246-0.135-1.886
		c-0.102-0.068-0.236-0.168-0.336-0.236c-0.506,0.135-0.506,0.135-1.717,0.808c-0.338,0.337-3.166,5.151-4.646,7.406
		c-1.615,1.583-2.727,3.703-4.545,5.151c-0.91,1.178-3.232,3.501-4.713,3.905c0.135-0.741,0.605-1.212,1.01-1.818
		c0.303-0.202,4.006-4.646,5.15-6.127c0.908-2.727,2.525-5.151,2.525-8.013c-0.977-1.852-2.559-1.011-4.107-1.515
		c0.201-0.404,0.941-0.539,1.447-0.808c2.93,0,3.064,0.606,4.209,3.232c0.168,0.067,0.303,0.135,0.438,0.236
		c1.01-1.616,1.145-2.458,1.246-4.208c-2.492-2.257-10.639,1.414-12.928,2.558c-1.986,1.179-3.604,2.525-5.354,3.973
		c-1.953,0.64-0.775-1.616-0.438-2.188c0.875-0.707,1.75-1.415,2.658-2.122v-0.438c-2.996,0-4.812,1.448-7.236,2.424l-7.24,1.279
		c0-0.034,0-0.068,0-0.101c-3.904,0.606-7.877,0.977-11.782,1.212v-0.101c-3.535-0.37-6.902,0.269-10.403,0.269
		c-3.636-0.067-7.542,0.235-11.009-0.673c-0.101-0.27-0.033-0.404,0.236-0.438c6.632-0.067,12.188-0.303,18.92-0.438
		c0.64-0.067,4.478-0.134,5.892-0.235c2.66-0.37,5.15-0.708,7.676-0.943c-0.033-0.101-0.033-0.202-0.066-0.303
		c-1.314-0.169-2.828,0.033-4.176,0.066c-4.579,0.135-6.463,0.607-11.009,0.607c-5.857,0.134-11.715,0.134-17.606,0.134
		c-2.391-0.067-4.646-0.134-7.07-0.134c-0.067,0.067-0.134,0.101-0.168,0.168c0,0.336,0,0.336,0.168,0.471l2.828,0.034
		c0.034,0.067,0.067,0.134,0.101,0.202c1.75,0.168,1.75,0.168,1.953,0.303c-0.371,0.942-1.111,0.167-1.279,0.774
		c-1.01,0-3.165-0.202-4.006,0.134l0.101,0.573l2.66,1.515c0.841,0,1.414-0.337,2.39-0.337c0.27,0.842,0.505,0.808,1.583,1.212
		c3.4,0.741,6.801,1.347,10.403,1.549c0.606,0,8.82,0.067,8.888,0c1.852,0.168,3.77,0.37,5.655,0.37
		c-0.034,0.135-0.067,0.304-0.067,0.438c-0.269,0.067-0.606,0.134-0.875,0.236c-5.858-0.135-11.784,0-17.641-0.034
		c-1.01,0-9.628-0.774-9.864-1.346c-1.717,0-9.393,0.235-9.326-2.29c0.236-0.067,0.438-0.101,0.674-0.135
		c2.121,1.279,3.704,1.515,6.464,1.448c-0.034-0.169-0.034-0.303-0.034-0.438c-1.38-0.538-2.289-2.39-3.367-3.299
		c-2.256-0.236-8.888-1.548-6.094-5.084c4.916-2.761,11.278-3.938,16.8-5.083c1.246-0.236,5.353-0.404,6.027-0.404
		c1.75-0.135,3.366-0.404,5.117-0.673l-0.067-0.068h0.102l0.37,1.212c-0.27-0.303-1.077-0.167-2.66-0.134
		c-1.313,0.134-5.387,0.235-7.878,0.673c-2.963,0.707-5.992,1.616-8.854,2.491c-1.65,0.842-3.669,0.573-4.747,2.188
		c0.438,1.549,2.322,0.673,3.535,0.303c6.262-0.976,12.827-1.784,19.257-2.356c0.101-0.067,0.168-0.101,0.235-0.168l-0.538,1.01
		c-4.579,0.034-9.326,1.078-13.871,1.515c-0.605,0.236-1.986,0.505-3.232,0.909v0.27c2.996,0.034,5.993,0.067,9.023,0.135
		c2.087-0.404,4.208-0.438,6.463-0.606c2.391,0.606,2.963,0.909,5.791,0.977C92.421,79.361,98.01,79.025,103.598,78.722
		L103.598,78.722z M61.211,80.103v0.27c0.168,0.067,0.371,0.134,0.539,0.235c-1.684,0.236-2.861-0.033-4.444-0.74
		c-0.101-0.336-0.202-0.303-0.37-0.371c0.034-0.808,0.034-0.808,0.168-1.145c0.236,0,0.539-0.033,0.808-0.033
		c0.539,0.471,1.01,0.909,1.784,1.347C60.942,79.934,60.942,79.934,61.211,80.103L61.211,80.103z M76.866,94.917
		c0.034,0.066,0.068,0.101,0.135,0.167c1.145,0.034,2.289,0.068,3.4,0.068c0.168,0.168,2.66,0.135,3.131,0.135
		c7.44,0.302,14.747-0.068,22.186-0.943c1.852-0.606,3.939-0.606,5.857-1.246l1.381,0.034c0,0.404-0.068,0.471-0.369,0.809
		c-3.098,1.447-7.205,1.347-10.471,2.154c-4.107,0.236-4.715,0.37-6.397,0.438c-4.68,0-9.326,0.033-14.006-0.135
		c-2.457-0.269-5.858-0.673-7.979,0.707c0.033,0.17,0.067,0.305,0.135,0.438c1.212,0.506,2.828,0.574,4.242,0.775
		c4.074,0.236,7.811,0.639,11.817,0.707c0.067-0.033,0.168-0.068,0.235-0.068c8.921,0,17.742-0.135,26.496-1.986
		c1.01-0.369,1.65-0.908,2.762-0.841v0.403c-1.92,1.65-5.287,1.818-7.609,2.154c-0.875,0.539-4.006,0.27-4.107,0.574
		c-3.4,0.268-6.834,0.504-10.268,0.74c-0.035,0.033-0.102,0.033-0.17,0.066c-5.891-0.033-11.715,0.035-17.573-0.336
		c-2.895,0.605-4.949,1.279-7.306,3.062c-0.034,0.135-0.034,0.27-0.034,0.404c1.784,1.381,3.03-0.236,5.151-0.135
		c0.067,0.875,0.067,0.875,0.202,1.213c3.568,0.135,7.137,0.336,10.739,0.336c1.751-0.066,3.501-0.102,5.286-0.135
		c5.522-0.135,11.379-1.111,16.833-2.424c1.246-0.168,2.391-0.773,3.637-0.809c0.066,1.785-4.613,2.357-5.758,2.795
		c-5.049,0.674-9.998,1.75-15.048,1.953c-0.977,0.135-2.626-0.168-3.434,0.168c0.034,0.102,0.066,0.236,0.101,0.371
		c1.885,0.033,3.804,0.1,5.723,0.201c0.033,0.068,0.067,0.102,0.101,0.168c4.983,0.068,9.932-0.135,14.948-0.234
		c0.572,0,3.367,0.201,3.535-0.203c0.674,0,1.279-0.438,1.885-0.336c0.068,0.438,0.068,0.438-0.066,0.74
		c-2.66,1.516-8.316,3.131-11.648,3.805c-0.033,0.066-0.033,0.135-0.068,0.201c2.121,0,4.277-0.605,6.33-0.369
		c0,0.1,0.033,0.201,0.033,0.336c-2.424,1.447-5.049,1.279-7.475,2.154c-2.188,0.303-2.625,0.506-4.141,0.707
		c0.035,0.102,0.102,0.168,0.135,0.27c1.717,0.102,3.4,0.066,5.117,0.033c0.035-0.066,0.035-0.135,0.068-0.201
		c1.852-0.168,3.703-0.336,5.555-0.539c0,2.289-15.924,2.861-20.099,2.963c-2.896-0.201-5.589-0.236-8.148-1.615
		c-2.626-0.404-5.622-0.674-7.911-1.92c-0.472-0.471-0.472-0.471-1.145-1.516c-1.784-0.639-6.127-1.783-4.679-4.611
		c0.437-0.371,0.875-0.707,1.312-1.078c0-0.133-0.033-0.303-0.033-0.438c-1.65-1.076-2.592-1.885-3.03-2.053
		c-1.01-1.178-0.875-1.246-0.875-2.627c0.64-0.842,2.794-1.918,2.694-2.625c-0.909-0.641-2.021-1.314-2.56-2.087
		c-0.538-2.593-0.269-2.491-2.356-3.703l-0.034-0.539c1.179,0.067,1.852,0.808,3.064,0.909c0.168-0.943,0.168-0.943,0.337-1.313
		c3.905-2.121,9.494-2.188,13.836-0.808v0.303c-2.122,0-4.208-0.27-6.195-0.27c-1.279,0.741-4.848,1.347-5.285,2.525
		C69.931,93.973,75.25,94.647,76.866,94.917L76.866,94.917z M70.167,96.699c-1.717-0.639-2.962-0.706-3.4-2.389
		c0.91-1.044,1.818,0.067,3.03,0.673c1.212,0.236,1.212,0.236,2.795,0.809C72.221,96.464,70.773,96.6,70.167,96.699L70.167,96.699z
		 M69.022,102.996c-1.144-0.303-2.086-0.775-2.154-1.92c1.582-3.23,5.286-2.289,8.08-1.75c0.033,0.168,0.033,0.371,0.067,0.572
		c-1.852,0.506-3.232,1.516-4.31,2.963C70.167,102.895,69.595,102.928,69.022,102.996L69.022,102.996z M72.658,109.021
		c-1.178-0.336-1.953-0.674-2.895-1.178v-0.641c2.693-1.75,3.501-1.109,6.363,0.305c-0.067,0.1-0.101,0.234-0.101,0.369
		C74.914,108.314,73.736,108.92,72.658,109.021L72.658,109.021z M80.301,108.146c1.75,0.033,3.535,0.068,5.286,0.102
		c0,0.168,0,0.336,0,0.506c-0.472,0.201-0.909,0.402-1.38,0.639c-2.357,0-4.411,0.572-6.666-0.068
		C77.911,108.584,79.492,108.383,80.301,108.146L80.301,108.146z M82.826,112.188c2.256-0.102,4.443-0.236,6.665-0.236
		c4.579,0.168,9.292-1.178,13.804-0.74c-0.033,0.033-0.033,0.066-0.068,0.1c0,0.641-10.436,1.482-11.479,1.584
		c-2.828,0-5.622-0.068-8.417-0.068l-0.606-0.135c-0.034-0.168-0.034-0.336-0.067-0.504H82.826L82.826,112.188z M94.912,108.449
		c0.033,0.035,0.067,0.068,0.101,0.068c2.829,0.033,5.655,0.066,8.483,0.135c0.102,0.066,0.203,0.135,0.305,0.168
		c-3.064,1.01-5.994,1.145-9.158,1.01v0.203c-2.559,0-5.152-0.068-7.71-0.17c0-0.066,0-0.135,0-0.234
		c0.741-0.305,1.448-0.641,2.189-0.977L94.912,108.449L94.912,108.449z M65.925,120.266c0.033,0.068,0.067,0.135,0.135,0.203
		l6.598,0.303c0.034,0.066,0.068,0.135,0.101,0.201c1.616,0,3.198,0.068,4.781,0.068l0.067,0.033
		c6.498,0.068,12.961-0.033,19.459-0.033l0.201-0.203c2.998,0,6.027,0.068,9.023,0.068c0.336,0.336,9.393,0.033,10.639,0
		c0.033,0.066,0.066,0.135,0.102,0.168c6.834,0.102,13.803,0.135,19.965-3.4c2.086-2.424-0.338-1.516-0.203-3.164
		c1.043-0.539,2.189,1.379,2.457,2.289c0,4.578-8.854,4.746-11.648,5.656l-14.611,2.154c0,0-3.5,0.404-3.77,0.404v0.168h3.098h0.842
		c1.783,0,3.533-0.066,5.318-0.066c0.168,0.168,2.66,0.135,3.098,0.135c2.424,0.066,2.424,0.066,3.365,0.268
		c0.035,0.068,0.068,0.135,0.135,0.236c-0.404,0.201-0.807,0.102-1.178,0.338c-8.518,0-17,0.369-25.518,0.404
		c-0.035,0.031-0.068,0.066-0.102,0.133c0.033,0.17,0.033,0.17,0.234,0.236c3.703,0.033,7.408,0.135,11.145,0.135
		c6.463-0.068,12.961-0.135,19.426-0.168c0.033-0.102,0.066-0.135,0.1-0.203c5.656-0.504,11.549-0.773,16.834-3.299
		c0.943-0.842,1.684-1.65,2.256-2.727c1.717,0.27-0.371,2.693-1.078,3.266c-3.668,1.582-7.775,2.592-11.615,3.434
		c-3.803,0.506-7.709,0.74-11.211,2.121l-18.717,1.414l-12.929,1.01l-4.646,0.236c-6.06,0.033-11.918-0.068-17.81-0.809
		c-0.606-0.236-1.852-0.371-5.959-1.48c-2.424-0.943-4.68-1.986-6.834-3.232c-2.728-0.471-5.455-0.842-8.081-1.111
		c-2.255-0.775-8.214-1.885-8.551-4.578c1.885,0.201,3.4,1.783,5.689,1.783v-0.236c-1.683-1.885-2.794-3.568-1.178-5.789
		c6.632-3.703,11.783-5.285,19.325-4.578c0,0.1,0,0.201,0,0.336c-2.896,0.875-9.292,1.312-11.178,3.805
		c0,2.154,1.616,2.49,3.468,3.164C59.932,119.693,62.895,120.166,65.925,120.266L65.925,120.266z M82.085,130.4
		c-0.943,0.066-3.434,0.066-4.107-0.168c-4.579-0.068-9.528-1.246-13.803-2.559c-0.067-0.135-0.135-0.27-0.201-0.404
		c3.299-0.033,6.598-0.033,9.897-0.033c2.794,0,5.42,0.369,8.147,0.369c3.198,0.068,7.037,0.338,8.652,0.27
		c0.034,0.068,0.067,0.102,0.135,0.168c3.704,0.035,7.373,0.035,11.076,0l0.102,0.135c2.828,0,5.656,0.068,8.484,0.068
		c0.033,0.066,0.066,0.102,0.1,0.168c1.01,0.033,2.021,0.033,3.064,0.066c0.674-0.066,1.312-0.133,1.986,0.135
		c-0.539,0.539-1.953,0-2.055,0.371c-4.713,0.303-9.324,0.773-14.072,0.875c-1.178,0.068-4.242,0.707-5.69,0.438
		C89.862,130.334,85.99,130.535,82.085,130.4L82.085,130.4z M87.438,124.576c-0.875-0.102-6.464-0.203-7.407-0.203
		c-1.582-0.033-3.165-0.066-4.781-0.066c-0.707-0.033-2.188,0.033-2.861-0.168c-0.842-0.068-1.684-0.102-2.559-0.135
		c-0.067-0.27-11.346-0.605-12.49-0.674c-0.572-0.438-0.572-0.438-1.818-1.818l-0.741,0.033c-0.067,0.404-0.1,0.809-0.134,1.246
		c-1.583,0.102-7.373-1.145-8.316-2.996c0-1.918,3.401-3.736,5.083-3.67c1.078,4.275,3.737,4.344,7.912,5.32
		c5.387,0.572,10.773,1.043,16.294,1.447c0.606,0.102,22.152,0.201,24.105,0.201c1.516-0.1,3.535,0,3.973,0.338
		c-1.111,0.975-6.33,0.773-7.879,0.842c-0.673,0.133-3.231,0.066-3.905,0.234C89.223,124.543,88.886,124.643,87.438,124.576
		L87.438,124.576z"/>
	<path style="fill-rule:evenodd;clip-rule:evenodd;fill:#CC2229;" d="M52.223,135.787c4.612,0,9.191,0,13.804,0
		c1.01,0.1,0.875,1.684,0.066,1.918c-2.457,0.709-3.635,0.438-3.837,3.771c-0.202,9.662,0.102,19.223,0.034,28.92
		c-0.067,6.766-1.28,10.604-3.367,13.803c-2.087,3.232-5.218,5.051-7.945,5.689c-1.885,0.066-4.545,0.168-4.848-1.246
		c2.76-5.59,5.05-0.873,8.787-3.096c2.929-2.189,2.255-13.703,2.255-19.225c0-3.736-0.235-8.047-0.37-12.859
		c-0.101-4.814-0.134-6.264-0.371-11.818c-0.235-3.299-1.75-3.568-4.208-4.209C50.842,137.57,50.977,135.988,52.223,135.787
		L52.223,135.787z"/>
	<path style="fill-rule:evenodd;clip-rule:evenodd;fill:#CC2229;" d="M81.513,146.998c-0.774,2.154-1.583,4.477-2.424,6.969
		c-0.841,2.49-1.75,5.219-2.693,8.215c0.606,0,1.28,0.033,2.02,0.033c0.707,0,1.75,0,3.165,0c1.38,0,2.391,0,3.063,0
		c0.639,0,1.246-0.033,1.784-0.033c-0.64-2.088-1.346-4.344-2.121-6.666C83.533,153.125,82.624,150.297,81.513,146.998
		L81.513,146.998z M83.163,143.598l0.908,0.506c3.131,9.762,6.364,19.525,9.898,29.121c0.774,2.457,2.761,2.93,3.568,3.062
		c0.844,0.033,1.18,1.01,0,1.211l-10.065,0.035c-1.044,0-1.111-1.01,0-1.246c0.976-0.066,2.996-0.033,2.222-2.928
		c-0.034,0-2.492-8.652-2.626-9.123c-0.606,0-1.246-0.035-1.986-0.035c-0.741,0-1.852,0-3.367,0c-1.582,0-2.794,0-3.602,0
		s-1.583,0.035-2.289,0.035c-0.741,2.287-1.347,4.375-1.885,6.361c-0.505,1.953-0.64,2.189-0.91,3.771
		c-0.067,1.447,0.438,1.785,2.593,1.918c0.673,0.338,0.673,1.01,0.034,1.211h-9.258c-0.942,0.035-0.875-1.143,0-1.211
		c0.875-0.133,2.222-0.303,3.367-2.357c1.616-4.072,2.525-6.766,4.31-11.951c1.817-5.184,3.636-10.84,5.555-16.934
		c0.64-0.201,1.245-0.404,1.852-0.639C82.085,144.137,82.624,143.867,83.163,143.598L83.163,143.598z"/>
	<path style="fill-rule:evenodd;clip-rule:evenodd;fill:#CC2229;" d="M109.758,171.002l3.031-7.137l5.387-12.727
		c0.539-1.953,1.111-2.121,1.381-3.703c0.066-1.449-0.438-1.783-2.594-1.918c-0.672-0.305-0.672-1.012-0.033-1.213h9.258
		c0.943-0.033,0.91,1.145,0,1.213c-0.84,0.135-2.221,0.336-3.365,2.389l-5.387,11.783l-8.014,18.518l-1.447-0.068L96.629,148.58
		c-0.774-2.424-2.761-2.928-3.569-3.062c-0.842,0-1.178-1.012,0.034-1.213l10.033-0.068c1.043,0,1.111,1.078,0,1.281
		c-0.977,0.066-2.963,0.033-2.188,2.928l5.52,14.51L109.758,171.002L109.758,171.002z"/>
	<path style="fill-rule:evenodd;clip-rule:evenodd;fill:#CC2229;" d="M135.109,146.998c-0.74,2.154-1.549,4.477-2.391,6.969
		c-0.842,2.49-1.75,5.219-2.727,8.215c0.605,0,1.279,0.033,2.02,0.033c0.742,0,1.785,0,3.166,0c1.379,0,2.424,0,3.062,0
		c0.674,0,1.279-0.033,1.785-0.033c-0.641-2.088-1.348-4.344-2.121-6.666C137.129,153.125,136.221,150.297,135.109,146.998
		L135.109,146.998z M136.793,143.598l0.908,0.506c3.098,9.762,6.33,19.525,9.898,29.121c0.775,2.457,2.727,2.93,3.568,3.062
		c0.842,0.033,1.145,1.01-0.033,1.211l-10.033,0.035c-1.076,0-1.111-1.01,0-1.246c0.977-0.066,2.963-0.033,2.189-2.928
		c-0.033,0-2.457-8.652-2.627-9.123c-0.572,0-1.244-0.035-1.951-0.035c-0.742,0-1.887,0-3.402,0c-1.582,0-2.76,0-3.568,0
		c-0.842,0-1.582,0.035-2.322,0.035c-0.707,2.287-1.346,4.375-1.885,6.361c-0.506,1.953-0.605,2.189-0.91,3.771
		c-0.033,1.447,0.438,1.785,2.594,1.918c0.672,0.338,0.672,1.01,0.033,1.211h-9.225c-0.977,0.035-0.908-1.143,0-1.211
		c0.842-0.133,2.188-0.303,3.332-2.357c1.65-4.072,2.559-6.766,4.344-11.951c1.783-5.184,3.635-10.84,5.521-16.934
		c0.641-0.201,1.279-0.404,1.852-0.639C135.682,144.137,136.254,143.867,136.793,143.598L136.793,143.598z"/>
	<path style="fill-rule:evenodd;clip-rule:evenodd;fill:#CC2229;" d="M144.771,148.041v-3.736h-1.346v-0.74h3.568v0.74h-1.314v3.736
		H144.771L144.771,148.041z M147.566,148.041v-4.477h1.346l0.809,3.062l0.807-3.062h1.348v4.477h-0.842v-3.535l-0.875,3.535h-0.875
		l-0.875-3.535v3.535H147.566L147.566,148.041z"/>
</g>
</svg>
