<?xml version="1.0" encoding="iso-8859-1"?>
<!-- Generator: Adobe Illustrator 16.0.0, SVG Export Plug-In . SVG Version: 6.00 Build 0)  -->
<!DOCTYPE svg PUBLIC "-//W3C//DTD SVG 1.1//EN" "http://www.w3.org/Graphics/SVG/1.1/DTD/svg11.dtd">
<svg version="1.1" id="Layer_1" xmlns="http://www.w3.org/2000/svg" xmlns:xlink="http://www.w3.org/1999/xlink" x="0px" y="0px"
	 width="192.756px" height="192.756px" viewBox="0 0 192.756 192.756" style="enable-background:new 0 0 192.756 192.756;"
	 xml:space="preserve">
<g>
	<polygon style="fill-rule:evenodd;clip-rule:evenodd;fill:#FFFFFF;" points="0,0 192.756,0 192.756,192.756 0,192.756 0,0 	"/>
	<path style="fill-rule:evenodd;clip-rule:evenodd;" d="M22.62,94.259c0.173-0.886-0.328-1.734-0.231-3.41
		c0,0,6.609,0.52,10.115,0.058c0,0,2.428-0.309,3.892-0.038c1.426,0.384,2.89,0.309,4.74,3.237c2.158,2.658,3.313,3.351,6.589,3.507
		c1.772-0.156,2.119-2.737-0.27-3.74c0,0-1.965-1.193-2.504-2.812c-0.925-1.272-2.66-3.122-3.006-3.93
		c-0.347-0.81-1.619-5.704,3.815-7.553c2.042,0.193,4.046-0.192,7.476,5.048c1.734,2.312,2.389,3.314,3.352,2.659
		c0.384-0.209,1.133-0.81,1.273-0.924c-0.027-0.01,0.024-0.021,0.024-0.021s-0.01,0.009-0.024,0.021
		c0.041,0.018,0.26,0.038,1.116,0.038c1.966,0.924,4.239,4.083,6.859,6.936c0,0,1.541,2.35,6.397,2.812c0,0,6.242,0.309,9.865-0.693
		c1.695-0.078,2.967,0.039,2.967,0.039l1.889,0.732c0,0,1.001,0.886,3.506-0.502c2.158-0.191,3.507,0.04,3.507,0.04
		s4.856,2.003,8.708-0.309c1.311-0.078,1.311,0.078,1.002,1.771c0,0-1.732,5.781-1.502,7.324c-0.578,1.924-0.27,3.197-3.238,6.318
		c-1.461,2.08-3.234,4.47-4.16,5.934c-1.079,1.465-3.153,4.129-3.66,4.665c-0.235,0.923-0.078,1.463,1.811,1.115
		c1.849-0.577,4.392-1.889,6.166-4.546c1.811-1.813,2.656-2.698,4.971-3.506c3.236-1.428,5.471-1.697,3.699-4.818
		c2.619-0.616,7.359-0.539,8.555,0c1.502,0.077,3.814,0,3.814,0s3.43-0.463,4.586,0.694l0.068,0.076
		c7.475-10.033,11.902-22.47,11.902-35.942c0-33.256-26.961-60.215-60.216-60.215c-33.256,0-60.214,26.958-60.214,60.215
		c0,7.289,1.033,13.543,3.405,20.01C21.402,96.521,22.62,94.259,22.62,94.259L22.62,94.259z M88.051,103.565
		c-1.734,2.601-3.468,1.503-4.913,0.692c-2.428-1.675-3.814,0.404-3.814,0.751c0,0.348,0,0.753,0,0.753
		c0.115,0.287,0.153,0.364,1.541,0.751c1.502,0.23,2.312,0.618,3.198,1.08c1.311,0.229,1.233,0.229,3.121,0.037
		c1.194-0.693,1.773-0.538,2.274-2.582C89.264,103.006,88.051,103.565,88.051,103.565L88.051,103.565z"/>
	<path style="fill-rule:evenodd;clip-rule:evenodd;fill:#AC342C;" d="M125.734,67.603c-2.602-4.798-13.006-8.612-14.971-9.306
		c-0.521,3.584-2.484,5.665-2.484,5.665c-1.773,2.004-0.619-1.388-0.232-2.697c2.619-7.707-2.928-17.726-4.084-20.731
		c-0.541-2.929-3.238-7.785-3.238-7.785c-5.085-8.786-17.571-7.244-20.577-6.55c-2.234,2.235-11.175-0.078-15.799-0.462
		c-4.239,0.077-7.476,2.004-8.709,3.7c-1.926,1.31-4.47,13.872-4.47,13.872c-1.465,7.707,2.543,10.25,14.72,13.564
		c12.177,3.313,12.563,4.623,12.871,6.781c0.231,3.469,1.464,4.316,3.313,6.397c-3.699,0.231-4.7-0.154-4.7-0.154
		c-11.639-3.623-24.509-9.094-27.206-12.717c-3.083-2.389,0.153-7.861,0.153-7.861l-7.476-0.154c0,0-2.158-0.077-7.706,0.847
		c-6.321,2.622-6.706,5.627-6.706,5.627c-2.544,12.717,31.907,28.979,41.309,32.601c8.71,3.391,20.116,4.161,20.116,4.161
		c12.409,0.463,18.34-0.385,25.663-4.315C131.475,78.372,125.734,67.603,125.734,67.603L125.734,67.603z M70.418,42.401
		c-6.763,0.404-7.283,2.889-7.283,2.889c-2.254-0.346-5.144-2.889-5.318-5.548c-0.173-2.659,1.734-2.891,1.734-2.891
		c1.907,3.237,5.202,3.18,9.017,3.122c3.757-1.098,6.473,0.52,7.225,1.388C74.984,42.169,72.151,42.343,70.418,42.401L70.418,42.401
		z M87.076,34.763c0,0,2.937-1.321,2.244-2.94c-0.386-1.31-2.93-1.079-6.012-1.85c7.399-0.924,9.711,0,11.174,2.466
		C93.558,35.6,87.076,34.763,87.076,34.763L87.076,34.763z"/>
	<polygon style="fill-rule:evenodd;clip-rule:evenodd;fill:#AC342C;" points="82.811,173.896 60.994,173.896 60.994,136.449
		71.097,136.449 71.097,165.609 82.811,165.609 82.811,173.896 	"/>
	<polygon style="fill-rule:evenodd;clip-rule:evenodd;fill:#AC342C;" points="94.755,142.887 84.998,142.887 84.998,135.706
		94.755,135.706 94.755,142.887 	"/>
	<polygon style="fill-rule:evenodd;clip-rule:evenodd;fill:#AC342C;" points="94.755,173.896 84.998,173.896 84.998,145.025
		94.755,145.025 94.755,173.896 	"/>
	<path style="fill-rule:evenodd;clip-rule:evenodd;fill:#AC342C;" d="M121.754,155.522v18.373h-10.559v-13.973
		c0-1.136-0.125-2.267-0.125-3.398c0-8.15-4.152-2.596-4.152-2.596v19.967h-9.623v-28.87h9.623v3.762c0,0,1.873-4.297,7.619-4.297
		C120.285,144.49,121.754,148.108,121.754,155.522L121.754,155.522z"/>
	<polygon style="fill-rule:evenodd;clip-rule:evenodd;fill:#AC342C;" points="176.498,173.896 165.992,173.896 162.869,165.644
		159.846,173.896 149.248,173.896 157.277,158.84 149.414,144.945 160.266,144.945 162.969,152.725 165.713,144.945
		176.416,144.945 168.365,158.84 176.498,173.896 	"/>
	<path style="fill-rule:evenodd;clip-rule:evenodd;fill:#AC342C;" d="M147.686,173.896v-28.87h-10.023c0,0,0,19.12,0,20.452
		c-1.205,2.81-3.994,1.721-4.145,0c0-0.674,0-20.452,0-20.452h-10.291v22.991c0,0,0.4,6.549,7.084,6.549
		c4.811,0,6.494-2.916,7.389-4.466c0,2.06,0,3.796,0,3.796H147.686L147.686,173.896z"/>
	<path style="fill-rule:evenodd;clip-rule:evenodd;" d="M114.691,126.741c-3.955,0-7.283,2.93-7.283,7.822
		c0,5.362,3.527,7.822,7.936,7.822c1.766,0,3.586-0.353,5.092-0.938v-2.987c-1.393,0.644-2.9,1.054-4.607,1.054
		c-2.902,0-4.268-1.815-4.381-3.749h10.041v-0.908C121.488,133.509,121.375,126.741,114.691,126.741L114.691,126.741z
		 M111.447,133.04c0.029-1.992,1.309-3.545,3.016-3.545c1.422,0,3.1,0.996,3.045,3.545H111.447L111.447,133.04z M101.18,130.257
		h-0.084v-3.281h-3.527v15.176h3.867v-7.294c0-4.249,2.191-5.128,3.584-5.128c0.398,0,0.967,0.06,1.252,0.087l0.143-2.899
		c-0.4-0.088-0.912-0.176-1.281-0.176C102.857,126.741,101.521,128.411,101.18,130.257L101.18,130.257z M174.678,140.834
		c-1.166,0-1.734-0.382-1.734-2.931v-9.229h3.471v-1.553h-3.471v-4.424l-1.793,0.674v3.75h-2.986v1.553h2.986v9.346
		c0,1.67,0.115,4.365,3.328,4.365c0.512,0,1.225-0.028,2.02-0.321v-1.553C175.93,140.774,175.389,140.834,174.678,140.834
		L174.678,140.834z M133.492,120.179v6.357l0.084,2.49h-0.055c-0.77-1.23-2.107-2.285-4.24-2.285c-2.984,0-6.371,2.285-6.371,7.822
		c0,4.805,2.447,7.822,6.201,7.822c2.816,0,4.152-1.611,4.807-2.871h0.057v2.637h3.387v-21.045L133.492,120.179L133.492,120.179z
		 M130.221,139.222c-1.564,0-3.271-1.436-3.271-4.658s1.707-4.658,3.271-4.658s3.271,1.436,3.271,4.658
		S131.785,139.222,130.221,139.222L130.221,139.222z M166.941,132.483c0-2.051-0.428-5.596-5.148-5.596
		c-1.707,0-3.129,0.381-4.352,0.938v1.758c1.393-0.791,2.93-1.143,4.352-1.143c3.328,0,3.357,2.959,3.357,4.014v0.527h-0.939
		c-2.959,0-8.363,0.234-8.363,5.157c0,2.313,1.621,4.247,4.779,4.247c1.564,0,3.527-0.469,4.75-2.781h0.057v2.547h1.594l-0.086-3.28
		V132.483L166.941,132.483z M165.15,135.618c0,3.281-1.766,5.216-4.553,5.216c-1.65,0-2.873-1.202-2.873-2.813
		c0-3.019,3.129-3.486,5.803-3.486h1.623V135.618L165.15,135.618z M147.77,126.888c-2.275,0-3.924,1.464-4.664,3.34h-0.057
		l0.141-3.281v-4.441l-1.789-0.431v20.077h1.789v-8.76c0-2.783,1.994-4.951,4.297-4.951c3.611,0,3.584,2.666,3.584,4.453v9.258
		h1.791v-9.346C152.861,130.55,152.436,126.888,147.77,126.888L147.77,126.888z"/>
</g>
</svg>
